HIERARCHY
ROOT Bone
{
	OFFSET 0.000000 0.000000 0.000000
	CHANNELS 6 Xposition Yposition Zposition Xrotation Yrotation Zrotation
	End Site
	{
		OFFSET 0.000000 0.000000 1.000000
	}
}
MOTION
Frames: 20
Frame Time: 0.041667
0.000000 0.000000 0.000000 -0.000000 0.000000 -0.000000 
0.000000 0.000000 0.007811 -0.000000 0.921952 -0.000000 
0.000000 0.000000 0.031247 -0.000000 3.694869 -0.000000 
0.000000 0.000000 0.068876 -0.000000 8.163785 -0.000000 
0.000000 0.000000 0.116746 -0.000000 13.864901 -0.000000 
0.000000 0.000000 0.168393 -0.000000 20.017703 -0.000000 
0.000000 0.000000 0.216263 -0.000000 25.713929 -0.000000 
0.000000 0.000000 0.253892 -0.000000 30.204046 -0.000000 
0.000000 0.000000 0.277328 -0.000000 33.058809 -0.000000 
0.000000 0.000000 0.285139 -0.000002 34.135800 0.000005 
0.000000 -0.005642 0.285139 0.909347 34.298577 0.000249 
0.000000 -0.022622 0.285139 3.674869 34.407498 -0.003244 
0.000000 -0.050231 0.285139 8.222888 34.459592 -0.011819 
0.000000 -0.086343 0.285139 14.221121 34.456945 -0.020115 
0.000000 -0.127251 0.285139 21.027289 34.410032 -0.019374 
0.000000 -0.168159 0.285139 27.787064 34.337560 -0.004108 
0.000000 -0.204270 0.285139 33.671900 34.260902 0.023052 
0.000000 -0.231879 0.285139 38.096555 34.197043 0.052970 
0.000000 -0.248859 0.285139 40.778391 34.155840 0.075525 
0.000000 -0.254501 0.285139 41.661832 34.141670 0.083835 
